<?xml version="1.0" standalone="no"?>
<!DOCTYPE svg PUBLIC "-//W3C//DTD SVG 20010904//EN"
 "http://www.w3.org/TR/2001/REC-SVG-20010904/DTD/svg10.dtd">
<svg version="1.0" xmlns="http://www.w3.org/2000/svg"
 width="512.000000pt" height="512.000000pt" viewBox="0 0 512.000000 512.000000"
 preserveAspectRatio="xMidYMid meet">
<metadata>
Created by potrace 1.13, written by Peter Selinger 2001-2015
</metadata>
<g transform="translate(0.000000,512.000000) scale(0.100000,-0.100000)"
fill="#000000" stroke="none">
<path d="M1032 5059 c-484 -63 -866 -427 -963 -914 -21 -104 -21 -3066 0
-3170 47 -238 144 -419 315 -591 172 -171 353 -268 591 -315 104 -21 3066 -21
3170 0 238 47 419 144 591 315 171 172 268 353 315 591 21 104 21 3066 0 3170
-47 238 -144 419 -315 591 -166 165 -321 251 -564 311 -61 15 -204 17 -1572
19 -828 1 -1533 -2 -1568 -7z m1408 -1794 l0 -585 -585 0 -585 0 0 585 0 585
585 0 585 0 0 -585z m1408 -2 l2 -583 -585 0 -585 0 0 585 0 585 583 -2 582
-3 3 -582z m-1408 -1408 l0 -585 -582 2 -583 3 -3 583 -2 582 585 0 585 0 0
-585z m940 470 l0 -115 115 0 115 0 0 115 0 115 120 0 120 0 0 -350 0 -350
-350 0 -350 0 0 115 0 115 -120 0 -120 0 0 -350 0 -350 -115 0 -115 0 0 585 0
585 350 0 350 0 0 -115z m0 -935 l0 -120 -115 0 -115 0 0 120 0 120 115 0 115
0 0 -120z m468 -3 l3 -118 -118 3 -118 3 -3 104 c-1 58 0 111 2 118 4 11 31
13 118 11 l113 -3 3 -118z"/>
<path d="M1510 3260 l0 -350 350 0 350 0 0 350 0 350 -350 0 -350 0 0 -350z
m460 5 l0 -115 -115 0 -115 0 0 115 0 115 115 0 115 0 0 -115z"/>
<path d="M2910 3260 l0 -350 350 0 350 0 0 350 0 350 -350 0 -350 0 0 -350z
m470 5 l0 -115 -115 0 -115 0 0 115 0 115 115 0 115 0 0 -115z"/>
<path d="M1510 1860 l0 -350 350 0 350 0 0 350 0 350 -350 0 -350 0 0 -350z
m460 -5 l0 -115 -115 0 -115 0 0 115 0 115 115 0 115 0 0 -115z"/>
</g>
</svg>
